<mxfile host="app.diagrams.net" modified="2024-04-21T04:39:42.212Z" agent="Mozilla/5.0 (Macintosh; Intel Mac OS X 10_15_7) AppleWebKit/537.36 (KHTML, like Gecko) Chrome/124.0.0.0 Safari/537.36" version="24.2.7" etag="s3ki9Pg3FlYHFF1h3Quc" type="github">
  <diagram name="第 1 页" id="8GW4i7tjTSQ6a8StIR5z">
    <mxGraphModel>
      <root>
        <mxCell id="0" />
        <mxCell id="1" parent="0" />
      </root>
    </mxGraphModel>
  </diagram>
</mxfile>
